<svg xmlns="http://www.w3.org/2000/svg" viewBox="0 0 512 512">
  <defs>
    <linearGradient id="bgGrad" x1="0%" y1="0%" x2="100%" y2="100%">
      <stop offset="0%" style="stop-color:#1e1b4b"/>
      <stop offset="50%" style="stop-color:#312e81"/>
      <stop offset="100%" style="stop-color:#1e3a5f"/>
    </linearGradient>
    <linearGradient id="heartGrad" x1="0%" y1="0%" x2="100%" y2="100%">
      <stop offset="0%" style="stop-color:#3B82F6"/>
      <stop offset="100%" style="stop-color:#10B981"/>
    </linearGradient>
    <filter id="shadow" x="-20%" y="-20%" width="140%" height="140%">
      <feDropShadow dx="0" dy="4" stdDeviation="8" flood-color="#000" flood-opacity="0.3"/>
    </filter>
  </defs>
  
  <rect width="512" height="512" rx="96" fill="url(#bgGrad)"/>
  
  <g filter="url(#shadow)">
    <path d="M256 400C256 400 128 300 128 200C128 150 168 112 216 112C240 112 256 128 256 128C256 128 272 112 296 112C344 112 384 150 384 200C384 300 256 400 256 400Z" 
          fill="url(#heartGrad)"/>
    
    <circle cx="256" cy="232" r="48" fill="white" fill-opacity="0.2"/>
    <path d="M236 232L248 244L280 212" stroke="white" stroke-width="8" stroke-linecap="round" stroke-linejoin="round" fill="none"/>
  </g>
  
  <g>
    <circle cx="120" cy="120" r="12" fill="#3B82F6" fill-opacity="0.6"/>
    <circle cx="392" cy="140" r="8" fill="#10B981" fill-opacity="0.6"/>
    <circle cx="140" cy="380" r="10" fill="#8B5CF6" fill-opacity="0.5"/>
    <circle cx="400" cy="360" r="14" fill="#F59E0B" fill-opacity="0.4"/>
  </g>
</svg>
